Coordinates
version=1
nRows=21
nColumns=12
inDegrees=yes

Units are S.I. units (second, meters, Newtons, ...)
Angles are in degrees

endheader
time	SC_y	SC_z	SC_x	AC_y	AC_z	AC_x	GH_y	GH_z	GH_yy	EL_x	PS_y
       0.0              -47.31          31.56          7.622          60.49         -7.933         0.5072         -74.62          76.77          105.7          74.62          80.89
   0.03168              -47.31          31.55          7.622          60.48         -7.931          0.507         -74.58          76.76          105.6          74.62          80.89
   0.06335              -47.31          31.55          7.622          60.48         -7.929         0.5067         -74.55          76.75          105.6          74.62          80.89
   0.09503              -47.32          31.54          7.622          60.48         -7.927         0.5065         -74.51          76.73          105.6          74.62          80.89
    0.1267              -47.32          31.54          7.622          60.48         -7.925         0.5062         -74.47          76.72          105.5          74.62          80.89
    0.1584              -47.32          31.53          7.622          60.47         -7.922         0.5058         -74.43          76.71          105.5          74.62          80.89
    0.1901              -47.32          31.52          7.622          60.47         -7.919         0.5055         -74.38           76.7          105.4          74.62          80.89
    0.2217              -47.32          31.52          7.622          60.47         -7.916         0.5052         -74.33          76.68          105.4          74.63          80.89
    0.2534              -47.32          31.51          7.622          60.46         -7.913         0.5048         -74.28          76.67          105.3          74.63          80.89
    0.2851              -47.33           31.5          7.622          60.46          -7.91         0.5044         -74.22          76.65          105.3          74.63          80.89
    0.3168              -47.33          31.49          7.621          60.45         -7.907         0.5039         -74.16          76.63          105.2          74.63           80.9
    0.3484              -47.33          31.48          7.621          60.45         -7.903         0.5034          -74.1          76.61          105.1          74.63           80.9
    0.3801              -47.33          31.47          7.621          60.44         -7.899         0.5029         -74.03          76.59          105.1          74.64           80.9
    0.4118              -47.33          31.46          7.621          60.44         -7.894         0.5024         -73.95          76.57          105.0          74.64           80.9
    0.4435              -47.34          31.44          7.621          60.43         -7.889         0.5018         -73.87          76.55          104.9          74.64           80.9
    0.4751              -47.34          31.43          7.621          60.42         -7.884         0.5011         -73.78          76.52          104.8          74.64           80.9
    0.5068              -47.34          31.42          7.621          60.42         -7.879         0.5004         -73.68          76.49          104.7          74.65          80.91
    0.5385              -47.35           31.4          7.621          60.41         -7.872         0.4996         -73.58          76.46          104.6          74.65          80.91
    0.5702              -47.35          31.38           7.62           60.4         -7.866         0.4988         -73.46          76.43          104.5          74.65          80.91
    0.6018              -47.36          31.36           7.62          60.39         -7.858         0.4979         -73.34          76.39          104.4          74.66          80.91
    0.6335              -47.36          31.34           7.62          60.38          -7.85         0.4968          -73.2          76.35          104.2          74.66          80.92
